<?xml version="1.0" encoding="utf-8"?>
<!-- Generator: Adobe Illustrator 19.0.0, SVG Export Plug-In . SVG Version: 6.00 Build 0)  -->
<svg version="1.1" id="Layer_1" xmlns="http://www.w3.org/2000/svg" xmlns:xlink="http://www.w3.org/1999/xlink" x="0px" y="0px"
	 viewBox="5.6 4.6 39.6 41.8" style="enable-background:new 5.6 4.6 39.6 41.8;" xml:space="preserve">
<style type="text/css">
	.st0{fill:url(#XMLID_2_);}
	.st1{fill:#FFFFFF;}
</style>
<linearGradient id="XMLID_2_" gradientUnits="userSpaceOnUse" x1="7.8791" y1="78.3559" x2="13.0592" y2="73.0998" gradientTransform="matrix(0.99 -1.004197e-02 1.004197e-02 -0.99 -0.3929 99.6113)">
	<stop  offset="0" style="stop-color:#FFFFFF"/>
	<stop  offset="0.3603" style="stop-color:#FBFBFB"/>
	<stop  offset="0.7166" style="stop-color:#EFEFEF"/>
	<stop  offset="1" style="stop-color:#E0E0E0"/>
</linearGradient>
<path id="XMLID_22_" class="st0" d="M6.3,22.2c-0.8,0.8-0.9,2-0.2,2.7l3.4,3.4l5.4-4.6l-5-5L6.3,22.2z"/>
<path id="XMLID_19_" class="st1" d="M31,5.7c0.7-0.7,1.6-1.1,2.6-1.1s1.9,0.5,2.8,1.3c0.8,0.8,1.3,1.8,1.3,2.8s-0.3,1.9-1.1,2.6
	c-0.8,0.8-1.6,1.1-2.6,1.1s-1.9-0.5-2.7-1.3S30,9.3,30,8.4S30.3,6.4,31,5.7z M14.2,33.1l-5-5l17.3-17.3l5,5L14.2,33.1z"/>
<path id="XMLID_17_" class="st1" d="M44.6,19.8c0.8,0.8,0.8,2.1,0,2.9l-3.1,3.1l3.2,3.2L41,32.7l-3.2-3.2l-8,8
	c-0.7,0.7-1.1,1.3-1.1,1.9c0,0.6,0.3,1.2,1.1,2c0.6,0.6,1.1,1,1.6,1.3l-3.7,3.7c-1.3-0.7-2.4-1.5-3.5-2.6c-3.5-3.5-3.5-7-0.1-10.6
	l8.7-8.7l-2.7-2.7l3.7-3.7l2.7,2.7l4.6-4.6L44.6,19.8z"/>
</svg>
