<?xml version="1.0" encoding="utf-8"?>
<!-- Generator: Adobe Illustrator 19.0.0, SVG Export Plug-In . SVG Version: 6.00 Build 0)  -->
<svg version="1.1" id="Layer_1" xmlns="http://www.w3.org/2000/svg" xmlns:xlink="http://www.w3.org/1999/xlink" x="0px" y="0px"
	 viewBox="0 0 139.7 106.6" style="enable-background:new 0 0 139.7 106.6;" xml:space="preserve">
<style type="text/css">
	.st0{fill:url(#XMLID_93_);}
	.st1{fill:#FFFFFF;}
</style>
<linearGradient id="XMLID_93_" gradientUnits="userSpaceOnUse" x1="53.749" y1="39.4679" x2="4.734" y2="92.2162">
	<stop  offset="0" style="stop-color:#FFFFFF"/>
	<stop  offset="0.1249" style="stop-color:#F4F4F4"/>
	<stop  offset="0.3452" style="stop-color:#D6D6D6"/>
	<stop  offset="0.6352" style="stop-color:#A6A6A6"/>
	<stop  offset="0.9802" style="stop-color:#646464"/>
	<stop  offset="1" style="stop-color:#606060"/>
</linearGradient>
<path id="XMLID_457_" class="st0" d="M33.3,74.3L18.9,59.9L78.7,0.1l10.6,10.6c2.1,2.1,2.1,5.4,0,7.5L33.3,74.3z"/>
<path id="XMLID_456_" class="st1" d="M137.3,58.7c-0.2-0.2-1.4-1.5-1.6-1.7L97.2,18.4L82.4,33.2L96,46.8L95.8,47L50.7,92.1
	l14.4,14.4l45.2-45.2l0.2-0.2l0.2,0.2l15.1,15.1l3.5-3.5l7.3-7.3C138.5,63.7,138.8,60.7,137.3,58.7z"/>
<path id="XMLID_454_" class="st1" d="M5.4,38.9L16,28.3l31.5,31.5c0.1,0.1,0.1,0.3,0,0.3l-14,14c-0.1,0.1-0.3,0.1-0.3,0L5.6,46.6
	C3.4,44.4,3.3,41,5.4,38.9z"/>
<path id="XMLID_452_" class="st1" d="M29.2,70.3L1.7,42.7c-0.1-0.1-0.1-0.3,0-0.3l14-14c0.1-0.1,0.3-0.1,0.3,0l31.5,31.5L36.9,70.4
	C34.9,72.5,31.4,72.4,29.2,70.3z"/>
</svg>
