<?xml version="1.0" encoding="utf-8"?>
<!-- Generator: Adobe Illustrator 19.0.0, SVG Export Plug-In . SVG Version: 6.00 Build 0)  -->
<svg version="1.1" id="Layer_1" xmlns="http://www.w3.org/2000/svg" xmlns:xlink="http://www.w3.org/1999/xlink" x="0px" y="0px"
	 viewBox="0 0 161.3 164" style="enable-background:new 0 0 161.3 164;" xml:space="preserve">
<style type="text/css">
	.st0{fill:url(#XMLID_50_);}
	.st1{fill:#FFFFFF;}
</style>
<linearGradient id="XMLID_50_" gradientUnits="userSpaceOnUse" x1="65.0823" y1="39.3679" x2="16.0673" y2="92.1162">
	<stop  offset="0" style="stop-color:#FFFFFF"/>
	<stop  offset="0.1249" style="stop-color:#F4F4F4"/>
	<stop  offset="0.3452" style="stop-color:#D6D6D6"/>
	<stop  offset="0.6352" style="stop-color:#A6A6A6"/>
	<stop  offset="0.9802" style="stop-color:#646464"/>
	<stop  offset="1" style="stop-color:#606060"/>
</linearGradient>
<path id="XMLID_457_" class="st0" d="M44.6,74.2L30.2,59.8L90,0l10.6,10.6c2.1,2.1,2.1,5.4,0,7.5L44.6,74.2z"/>
<path id="XMLID_456_" class="st1" d="M148.6,58.6c-0.2-0.2-1.4-1.5-1.6-1.7l-38.5-38.5L93.8,33.1l13.6,13.6l-0.2,0.2L62,92
	l14.4,14.4l45.2-45.2l0.2-0.2l0.2,0.2l15.1,15.1l3.5-3.5l7.3-7.3C149.9,63.6,150.1,60.6,148.6,58.6z"/>
<path id="XMLID_454_" class="st1" d="M16.7,38.8l10.6-10.6l31.5,31.5c0.1,0.1,0.1,0.3,0,0.3l-14,14c-0.1,0.1-0.3,0.1-0.3,0
	L16.9,46.5C14.7,44.3,14.7,40.9,16.7,38.8z"/>
<path id="XMLID_452_" class="st1" d="M40.6,70.2L13,42.6c-0.1-0.1-0.1-0.3,0-0.3l14-14c0.1-0.1,0.3-0.1,0.3,0l31.5,31.5L48.3,70.3
	C46.2,72.4,42.8,72.3,40.6,70.2z"/>
<path id="XMLID_22_" class="st1" d="M17.8,147.4c-1-1-2.8-1.3-3.8-1.3c-2.1,0-3.3,1-3.8,1.5c-0.8,0.8-1.5,2.1-1.5,3.8
	c0,1.5,0.5,2.8,1.3,3.6c1,1,2.6,1.5,3.8,1.5c1,0,2.6-0.3,4.1-1.5v5.9c-1.8,1-3.3,1.3-5.1,1.3c-3.3,0-5.9-1.3-8-3.1
	c-1.5-1.5-3.1-4.1-3.1-7.7c0-3.3,1.5-6.2,3.3-8c2.3-2.1,4.9-2.8,7.7-2.8c1.8,0,3.3,0.3,5.1,1L17.8,147.4L17.8,147.4z"/>
<path id="XMLID_21_" class="st1" d="M24.7,128.4h6.4v15.1c0.8-1,1.8-1.8,2.6-2.1c1.3-0.8,2.6-0.8,3.8-0.8c1.5,0,3.8,0.3,5.6,2.1
	c1.8,1.8,2.1,4.4,2.1,5.9v12.8h-6.7V151c0-1.3,0-3.1-1-4.1c-0.5-0.5-1.5-1-2.6-1c-1.3,0-2.3,0.5-2.6,1c-1.3,1.3-1.3,3.3-1.3,4.1v10
	h-6.4V128.4z"/>
<path id="XMLID_20_" class="st1" d="M71.9,152.5H56.8c0,1,0.5,2.6,1.3,3.3c1,1,2.3,1.3,3.3,1.3c1,0,2.1-0.3,2.6-0.5
	c0,0,0.8-0.5,1.3-1.8l6.2,0.5c-1,2.8-2.8,4.4-3.8,5.1c-2.1,1.3-4.1,1.5-6.4,1.5c-3.1,0-5.6-0.5-8.2-2.8c-1.8-1.8-3.1-4.4-3.1-7.7
	c0-2.8,1-5.9,3.1-8c2.6-2.6,5.4-2.8,7.7-2.8c2.3,0,5.6,0.5,8,3.1c2.3,2.6,2.8,5.6,2.8,8.2v0.5H71.9z M66,148.7
	c0-0.3-0.3-1.5-1.3-2.3c-0.8-0.8-1.8-1-3.1-1c-1.8,0-2.6,0.8-3.3,1.3c-0.5,0.5-1,1.3-1,2.1H66z"/>
<path id="XMLID_19_" class="st1" d="M91.7,147.4c-1-1-2.8-1.3-3.8-1.3c-2.1,0-3.3,1-3.8,1.5c-0.8,0.8-1.5,2.1-1.5,3.8
	c0,1.5,0.5,2.8,1.3,3.6c1,1,2.6,1.5,3.8,1.5c1,0,2.6-0.3,4.1-1.5v5.9c-1.8,1-3.3,1.3-5.1,1.3c-3.3,0-5.9-1.3-8-3.1
	c-1.5-1.5-3.1-4.1-3.1-7.7c0-3.3,1.5-6.2,3.3-8c2.3-2.1,4.9-2.8,7.7-2.8c1.8,0,3.3,0.3,5.1,1V147.4L91.7,147.4z"/>
<path id="XMLID_3_" class="st1" d="M104.3,128.4v20.3l7.4-7.4h8.5l-9.8,9.2l10.3,11H112l-7.7-8.7v8.7h-6.4v-33.1H104.3z"/>
<path id="XMLID_1_" class="st1" d="M133,131.2v30.3h-6.9v-30.3H133z"/>
<path id="XMLID_2_" class="st1" d="M153,137.1v24.4h-6.9v-24.4h-6.7v-5.9h20.3v5.9H153z"/>
</svg>
