<?xml version="1.0" encoding="utf-8"?>
<!-- Generator: Adobe Illustrator 19.0.0, SVG Export Plug-In . SVG Version: 6.00 Build 0)  -->
<svg version="1.1" id="Layer_1" xmlns="http://www.w3.org/2000/svg" xmlns:xlink="http://www.w3.org/1999/xlink" x="0px" y="0px"
	 viewBox="21.2 14.5 61.8 62.9" style="enable-background:new 21.2 14.5 61.8 62.9;" xml:space="preserve">
<style type="text/css">
	.st0{fill:url(#XMLID_3_);}
	.st1{fill:#FFFFFF;}
</style>
<linearGradient id="XMLID_3_" gradientUnits="userSpaceOnUse" x1="37.5806" y1="67.9537" x2="42.7607" y2="62.6976" gradientTransform="matrix(0.99 -1.004197e-02 1.004197e-02 -0.99 -0.3929 99.6113)">
	<stop  offset="0" style="stop-color:#FFFFFF"/>
	<stop  offset="0.3603" style="stop-color:#FBFBFB"/>
	<stop  offset="0.7166" style="stop-color:#EFEFEF"/>
	<stop  offset="1" style="stop-color:#E0E0E0"/>
</linearGradient>
<path id="XMLID_22_" class="st0" d="M35.6,32.2c-0.8,0.8-0.9,2-0.2,2.7l3.4,3.4l5.4-4.6l-5-5L35.6,32.2z"/>
<path id="XMLID_19_" class="st1" d="M60.3,15.7c0.7-0.7,1.6-1.1,2.6-1.1s1.9,0.5,2.8,1.3c0.8,0.8,1.3,1.8,1.3,2.8s-0.3,1.9-1.1,2.6
	c-0.8,0.8-1.6,1.1-2.6,1.1s-1.9-0.5-2.7-1.3s-1.3-1.8-1.3-2.7S59.6,16.4,60.3,15.7z M43.5,43.1l-5-5l17.3-17.3l5,5L43.5,43.1z"/>
<path id="XMLID_17_" class="st1" d="M73.9,29.8c0.8,0.8,0.8,2.1,0,2.9l-3.1,3.1L74,39l-3.7,3.7l-3.2-3.2l-8,8
	c-0.7,0.7-1.1,1.3-1.1,1.9c0,0.6,0.3,1.2,1.1,2c0.6,0.6,1.1,1,1.6,1.3L57,56.4c-1.3-0.7-2.4-1.5-3.5-2.6c-3.5-3.5-3.5-7-0.1-10.6
	l8.7-8.7l-2.7-2.7l3.7-3.7l2.7,2.7l4.6-4.6L73.9,29.8z"/>
<path id="XMLID_15_" class="st1" d="M27.6,71.6c-0.4-0.4-1.1-0.5-1.5-0.5c-0.8,0-1.3,0.4-1.5,0.6C24.3,72,24,72.5,24,73.2
	c0,0.6,0.2,1.1,0.5,1.4c0.4,0.4,1,0.6,1.5,0.6c0.4,0,1-0.1,1.6-0.6v2.3c-0.7,0.4-1.3,0.5-2,0.5c-1.3,0-2.3-0.5-3.1-1.2
	c-0.6-0.6-1.2-1.6-1.2-3c0-1.3,0.6-2.4,1.3-3.1c0.9-0.8,1.9-1.1,3-1.1c0.7,0,1.3,0.1,2,0.4V71.6L27.6,71.6z"/>
<path id="XMLID_13_" class="st1" d="M30.3,64.2h2.5v5.9c0.3-0.4,0.7-0.7,1-0.8c0.5-0.3,1-0.3,1.5-0.3c0.6,0,1.5,0.1,2.2,0.8
	c0.7,0.7,0.8,1.7,0.8,2.3v5h-2.6V73c0-0.5,0-1.2-0.4-1.6c-0.2-0.2-0.6-0.4-1-0.4c-0.5,0-0.9,0.2-1,0.4c-0.5,0.5-0.5,1.3-0.5,1.6v3.9
	h-2.5V64.2z"/>
<path id="XMLID_10_" class="st1" d="M48.7,73.6h-5.9c0,0.4,0.2,1,0.5,1.3c0.4,0.4,0.9,0.5,1.3,0.5c0.4,0,0.8-0.1,1-0.2
	c0,0,0.3-0.2,0.5-0.7l2.4,0.2c-0.4,1.1-1.1,1.7-1.5,2c-0.8,0.5-1.6,0.6-2.5,0.6c-1.2,0-2.2-0.2-3.2-1.1c-0.7-0.7-1.2-1.7-1.2-3
	c0-1.1,0.4-2.3,1.2-3.1c1-1,2.1-1.1,3-1.1s2.2,0.2,3.1,1.2c0.9,1,1.1,2.2,1.1,3.2v0.2H48.7z M46.4,72.1c0-0.1-0.1-0.6-0.5-0.9
	c-0.3-0.3-0.7-0.4-1.2-0.4c-0.7,0-1,0.3-1.3,0.5c-0.2,0.2-0.4,0.5-0.4,0.8H46.4z"/>
<path id="XMLID_8_" class="st1" d="M56.4,71.6c-0.4-0.4-1.1-0.5-1.5-0.5c-0.8,0-1.3,0.4-1.5,0.6c-0.3,0.3-0.6,0.8-0.6,1.5
	c0,0.6,0.2,1.1,0.5,1.4c0.4,0.4,1,0.6,1.5,0.6c0.4,0,1-0.1,1.6-0.6v2.3c-0.7,0.4-1.3,0.5-2,0.5c-1.3,0-2.3-0.5-3.1-1.2
	c-0.6-0.6-1.2-1.6-1.2-3c0-1.3,0.6-2.4,1.3-3.1c0.9-0.8,1.9-1.1,3-1.1c0.7,0,1.3,0.1,2,0.4V71.6L56.4,71.6z"/>
<path id="XMLID_6_" class="st1" d="M61.3,64.2v7.9l2.9-2.9h3.3l-3.8,3.6l4,4.3h-3.4l-3-3.4v3.4h-2.5V64.2H61.3z"/>
<path id="XMLID_4_" class="st1" d="M72.5,65.3v11.8h-2.7V65.3H72.5z"/>
<path id="XMLID_2_" class="st1" d="M80.3,67.6v9.5h-2.7v-9.5H75v-2.3h7.9v2.3H80.3z"/>
</svg>
