<?xml version="1.0" encoding="utf-8"?>
<!-- Generator: Adobe Illustrator 19.0.0, SVG Export Plug-In . SVG Version: 6.00 Build 0)  -->
<svg version="1.1" id="Layer_1" xmlns="http://www.w3.org/2000/svg" xmlns:xlink="http://www.w3.org/1999/xlink" x="0px" y="0px"
	 viewBox="0 0 167.9 140.7" style="enable-background:new 0 0 167.9 140.7;" xml:space="preserve">
<style type="text/css">
	.st0{fill:url(#XMLID_28_);}
	.st1{fill:#3CDD97;}
</style>
<linearGradient id="XMLID_28_" gradientUnits="userSpaceOnUse" x1="106.1214" y1="66.5983" x2="8.2743" y2="157.2732">
	<stop  offset="0" style="stop-color:#3CDD97"/>
	<stop  offset="0.5953" style="stop-color:#2FB0AD"/>
	<stop  offset="1" style="stop-color:#2896BA"/>
</linearGradient>
<path id="XMLID_287_" class="st0" d="M60.3,138.8l-26.6-26.6L144.5,1.3l19.7,19.7c3.8,3.8,3.8,10.1,0,13.9L60.3,138.8z"/>
<path id="XMLID_284_" class="st1" d="M8.7,73.2l19.7-19.7l58.3,58.3c0.2,0.2,0.2,0.5,0,0.6l-26,26c-0.2,0.2-0.5,0.2-0.6,0l-51-51
	C5,83.4,4.9,77,8.7,73.2z"/>
<path id="XMLID_229_" class="st1" d="M52.9,131.3l-51-51c-0.2-0.2-0.2-0.5,0-0.6l26-26c0.2-0.2,0.5-0.2,0.6,0l58.3,58.3l-19.7,19.7
	C63.3,135.4,56.9,135.3,52.9,131.3z"/>
</svg>
